<svg xmlns="http://www.w3.org/2000/svg" width="64" height="64" fill="none" viewBox="0 0 64 64"><defs><linearGradient id="rider_svg__a" x1="64.391" x2="39.607" y1="56.329" y2="2.874" gradientUnits="userSpaceOnUse"><stop offset=".21" stop-color="#007DFE"/><stop offset=".55" stop-color="#FFB700"/></linearGradient><linearGradient id="rider_svg__b" x1="59.676" x2="1.08" y1="4.067" y2="62.663" gradientUnits="userSpaceOnUse"><stop offset=".23" stop-color="#FFB700"/><stop offset=".73" stop-color="#FF0A67"/></linearGradient></defs><path fill="#007DFE" d="M47.55 58h12.258a4.125 4.125 0 0 0 4.124-4.19l-.176-11.044a4.12 4.12 0 0 0-1.44-3.066L24.158 6.993A4.13 4.13 0 0 0 21.474 6H10.125A4.125 4.125 0 0 0 6 10.125v11.003c0 1.19.514 2.321 1.409 3.105l37.425 32.746A4.12 4.12 0 0 0 47.55 58"/><path fill="url(#rider_svg__a)" d="M49.013 58h10.862A4.125 4.125 0 0 0 64 53.875V41.309q0-.3-.044-.598L58.508 3.527A4.125 4.125 0 0 0 54.427 0H39.029a4.125 4.125 0 0 0-4.125 4.126l.005 18.505c0 .425.066.848.195 1.253l9.979 31.246a4.13 4.13 0 0 0 3.93 2.87"/><path fill="url(#rider_svg__b)" d="M4.125 64h34.128a4.13 4.13 0 0 0 3.8-2.52L57.85 24.057c.219-.518.33-1.076.324-1.638l-.15-18.329A4.124 4.124 0 0 0 53.9 0H36.234c-.805 0-1.593.236-2.266.678L1.86 21.787A4.13 4.13 0 0 0 0 25.234v34.641A4.125 4.125 0 0 0 4.125 64"/><path fill="#000" d="M52 12H12v40h40z"/><path fill="#fff" d="M33 44H17v3h16zM16.992 16.992h6.442q1.576 0 2.776.579t1.85 1.63.648 2.432c0 .922-.22 1.75-.66 2.46q-.66 1.068-1.875 1.651-1.217.584-2.825.584h-3.43v5.67h-2.926zm7.54 6.63q.553-.274.853-.783.3-.51.3-1.184c0-.45-.1-.852-.3-1.185q-.3-.498-.852-.772-.552-.273-1.292-.273h-3.323v4.47h3.323q.74 0 1.292-.273m-2.63 1.763h3.194L29.03 32h-3.355zM31.613 16.992h5.713q2.133 0 3.822.965a6.9 6.9 0 0 1 2.641 2.674q.954 1.71.954 3.864t-.953 3.865a6.9 6.9 0 0 1-2.642 2.674q-1.688.964-3.822.964h-5.713zm8.028 11.876q1.008-.6 1.555-1.72t.547-2.653q0-1.534-.547-2.653-.547-1.12-1.555-1.721-1.008-.6-2.347-.6h-2.755v9.947h2.755q1.34 0 2.347-.6"/></svg>